<svg width="25" height="24" viewBox="0 0 25 24" fill="none" xmlns="http://www.w3.org/2000/svg">
<path d="M11.6749 17.15H13.4749V11H11.6749V17.15ZM12.4999 9.35C12.7999 9.35 13.0457 9.25417 13.2374 9.0625C13.4291 8.87083 13.5249 8.63333 13.5249 8.35C13.5249 8.03333 13.4291 7.77917 13.2374 7.5875C13.0457 7.39583 12.7999 7.3 12.4999 7.3C12.1999 7.3 11.9541 7.39583 11.7624 7.5875C11.5707 7.77917 11.4749 8.03333 11.4749 8.35C11.4749 8.63333 11.5707 8.87083 11.7624 9.0625C11.9541 9.25417 12.1999 9.35 12.4999 9.35ZM12.4999 22.35C11.0332 22.35 9.67074 22.0875 8.4124 21.5625C7.15407 21.0375 6.05824 20.3083 5.1249 19.375C4.19157 18.4417 3.4624 17.3458 2.9374 16.0875C2.4124 14.8292 2.1499 13.4667 2.1499 12C2.1499 10.55 2.4124 9.19167 2.9374 7.925C3.4624 6.65833 4.19157 5.5625 5.1249 4.6375C6.05824 3.7125 7.15407 2.97917 8.4124 2.4375C9.67074 1.89583 11.0332 1.625 12.4999 1.625C13.9499 1.625 15.3082 1.89583 16.5749 2.4375C17.8416 2.97917 18.9374 3.7125 19.8624 4.6375C20.7874 5.5625 21.5207 6.65417 22.0624 7.9125C22.6041 9.17083 22.8749 10.5333 22.8749 12C22.8749 13.4667 22.6041 14.8292 22.0624 16.0875C21.5207 17.3458 20.7874 18.4417 19.8624 19.375C18.9374 20.3083 17.8416 21.0375 16.5749 21.5625C15.3082 22.0875 13.9499 22.35 12.4999 22.35ZM12.4999 20.375C14.7999 20.375 16.7707 19.5583 18.4124 17.925C20.0541 16.2917 20.8749 14.3167 20.8749 12C20.8749 9.7 20.0541 7.72917 18.4124 6.0875C16.7707 4.44583 14.7999 3.625 12.4999 3.625C10.1999 3.625 8.22907 4.44583 6.5874 6.0875C4.94574 7.72917 4.1249 9.7 4.1249 12C4.1249 14.3167 4.94574 16.2917 6.5874 17.925C8.22907 19.5583 10.1999 20.375 12.4999 20.375Z" fill="white"/>
</svg>
