<svg width="22" height="22" viewBox="0 0 22 22" fill="none" xmlns="http://www.w3.org/2000/svg">
<path d="M4.40636 18.677V19.41C4.18802 19.1882 4.09595 18.955 4.09595 18.677V3.32284C4.09595 3.01916 4.19532 2.77787 4.41482 2.55837C4.63925 2.33394 4.87479 2.2395 5.15636 2.2395H13.1415L17.9272 7.02516V18.677C17.9272 18.9586 17.8328 19.1941 17.6083 19.4185C17.3888 19.638 17.1475 19.7374 16.8439 19.7374H5.15636C4.87835 19.7374 4.64522 19.6454 4.42334 19.427H5.15636H16.8439H17.5939V18.677V7.58534V6.83534H16.8439H13.2626V3.32284V2.57284H12.5126H5.15636H4.40636V3.32284V7.58534V18.677Z" fill="#1B1C1E" stroke="#1B1C1E" stroke-width="1.5"/>
</svg>
