<svg width="20" height="20" viewBox="0 0 20 20" fill="none" xmlns="http://www.w3.org/2000/svg">
<path d="M16.875 12.1042L15.3958 10.625L16 10.0208C16.1111 9.90972 16.2569 9.85417 16.4375 9.85417C16.6181 9.85417 16.7639 9.90972 16.875 10.0208L17.4792 10.625C17.5903 10.7361 17.6458 10.8819 17.6458 11.0625C17.6458 11.2431 17.5903 11.3889 17.4792 11.5L16.875 12.1042ZM10 17.5V16.0208L14.5 11.5208L15.9792 13L11.4792 17.5H10ZM2.5 13.125V11.875H8.75V13.125H2.5ZM2.5 9.6875V8.4375H12.2917V9.6875H2.5ZM2.5 6.25V5H12.2917V6.25H2.5Z" fill="#3B3C3E"/>
</svg>
